<svg width="20" height="20" viewBox="0 0 20 20" fill="none" xmlns="http://www.w3.org/2000/svg">
<path d="M17.14 10.936C17.176 10.636 17.2 10.324 17.2 10C17.2 9.67602 17.176 9.36403 17.128 9.06403L19.156 7.48002C19.336 7.33602 19.384 7.07202 19.276 6.86802L17.356 3.54402C17.236 3.32802 16.984 3.25602 16.768 3.32802L14.38 4.28802C13.876 3.90402 13.348 3.59202 12.76 3.35202L12.4 0.808024C12.364 0.568024 12.16 0.400024 11.92 0.400024H8.08C7.84 0.400024 7.648 0.568024 7.612 0.808024L7.252 3.35202C6.664 3.59202 6.124 3.91602 5.632 4.28802L3.244 3.32802C3.028 3.24402 2.776 3.32802 2.656 3.54402L0.736 6.86802C0.616 7.08402 0.664 7.33602 0.856 7.48002L2.884 9.06403C2.836 9.36403 2.8 9.68802 2.8 10C2.8 10.312 2.824 10.636 2.872 10.936L0.844 12.52C0.664 12.664 0.616 12.928 0.724 13.132L2.644 16.456C2.764 16.672 3.016 16.744 3.232 16.672L5.62 15.712C6.124 16.096 6.652 16.408 7.24 16.648L7.6 19.192C7.648 19.432 7.84 19.6 8.08 19.6H11.92C12.16 19.6 12.364 19.432 12.388 19.192L12.748 16.648C13.336 16.408 13.876 16.084 14.368 15.712L16.756 16.672C16.972 16.756 17.224 16.672 17.344 16.456L19.264 13.132C19.384 12.916 19.336 12.664 19.144 12.52L17.14 10.936V10.936ZM10 13.6C8.02 13.6 6.4 11.98 6.4 10C6.4 8.02002 8.02 6.40002 10 6.40002C11.98 6.40002 13.6 8.02002 13.6 10C13.6 11.98 11.98 13.6 10 13.6Z" fill="#364F6B"/>
</svg>
