<svg width="64" height="64" viewBox="0 0 64 64" fill="none" xmlns="http://www.w3.org/2000/svg">
<g clip-path="url(#clip0_164_802)">
<path d="M42.2422 38.2432L60.6299 43.2959L56.1509 59.5942L37.7632 54.541L42.2422 38.2432Z" fill="#A09D9C"/>
<path d="M59.4717 47.5005L56.1489 59.5908L53.1582 58.7685L56.1392 47.9199C56.3276 47.2343 57.0366 46.831 57.7222 47.0195L59.4717 47.5005Z" fill="#C4E1E8"/>
<path d="M59.2529 48.2964L58.3735 51.4951L54.561 53.6646L55.4399 50.4653L59.2529 48.2964Z" fill="#F0F5F7"/>
<path d="M58.1958 52.1416L57.7061 53.9253L53.8931 56.0942L54.3833 54.311L58.1958 52.1416Z" fill="#F0F5F7"/>
<path d="M43.7349 44.5112L40.7534 55.3599L37.7622 54.5381L41.085 42.4478L42.834 42.9282C43.52 43.1167 43.9233 43.8257 43.7349 44.5112Z" fill="#C4E1E8"/>
<path d="M43.6543 44.8042L42.7749 48.0029L38.9619 50.1719L39.8413 46.9722L43.6543 44.8042Z" fill="#F0F5F7"/>
<path d="M42.5972 48.6499L42.1074 50.4331L38.2944 52.6021L38.7847 50.8179L42.5972 48.6499Z" fill="#F0F5F7"/>
<path d="M50.0898 57.9253L43.8218 56.2026L46.1069 47.8867C46.2954 47.2011 47.0039 46.7978 47.6899 46.9863L51.4746 48.0263C52.1601 48.2148 52.5635 48.9233 52.375 49.6093L50.0898 57.9253Z" fill="#FAB03C"/>
<path d="M53.9224 28.8213L39.7124 36.9048C38.8736 37.3818 39.0303 38.6352 39.9615 38.8911L62.2549 45.0176C63.1856 45.2734 63.961 44.2759 63.4834 43.437L55.3999 29.227C55.104 28.707 54.4424 28.5254 53.9224 28.8213Z" fill="#F6CB43"/>
<path d="M62.2549 45.018L61.0713 44.6929C61.124 44.4521 61.0933 44.1865 60.9502 43.9345L52.8667 29.7246C52.8218 29.646 52.7686 29.5752 52.7095 29.5117L53.9229 28.8218C54.4424 28.5249 55.1045 28.707 55.3999 29.2275L63.4834 43.4375C63.9609 44.2768 63.1855 45.2739 62.2549 45.018Z" fill="#FAB03C"/>
<path d="M47.3789 53.4971C47.293 53.4971 47.2056 53.4854 47.1187 53.4615C46.605 53.3179 46.2993 52.7838 46.4429 52.2701C46.5864 51.7559 47.1143 51.4546 47.6274 51.5977L47.6382 51.6011C48.1519 51.7442 48.4522 52.2769 48.3086 52.7906C48.1895 53.2173 47.8013 53.4971 47.3789 53.4971Z" fill="black"/>
<path d="M64 54.5645V60.3609C64 61.7832 62.8467 62.9365 61.4243 62.9365H2.57568C1.15332 62.9365 0 61.7832 0 60.3609V25.9839C0 13.4463 10.0957 3.12793 22.6333 3.12158C35.1445 3.11621 45.2905 13.2573 45.2905 25.7661C45.2905 26.0376 45.2856 26.8901 45.2764 27.7969C45.2646 28.8784 44.5977 29.8003 43.6553 30.188C43.1465 30.3975 42.5596 30.4512 41.9419 30.2891C40.8115 29.9937 40.0474 28.938 40.0474 27.7695V27.2417C40.0474 21.6221 35.4927 17.0664 29.8716 17.0664C24.4658 17.0664 20.0435 21.2822 19.7178 26.6069C19.7178 49.5732 55.6826 52.8545 62.7891 53.2788C63.4692 53.3198 64 53.8828 64 54.5645Z" fill="#38AAFF"/>
<path d="M64 54.5645V57.3169L60.1367 56.9575C55.7974 56.5752 48.2871 55.6104 40.6948 53.2129C20.1631 46.7275 15.8545 35.165 15.8545 26.6069V26.4883L15.8608 26.3701C16.314 18.9863 22.4683 13.2031 29.8716 13.2031C33.3765 13.2031 36.5854 14.4932 39.0479 16.6255C43.3062 21.2681 43.9014 26.5693 43.6553 30.188C43.1465 30.3975 42.5596 30.4507 41.9419 30.2891C40.8115 29.9932 40.0474 28.9375 40.0474 27.7695V27.2417C40.0474 21.6221 35.4927 17.0659 29.8716 17.0659C24.4658 17.0659 20.0435 21.2822 19.7178 26.6069C19.7178 49.5732 55.6826 52.8545 62.7891 53.2788C63.4692 53.3198 64 53.8828 64 54.5645Z" fill="#60DAFF"/>
<path d="M25.7095 62.9365H2.57568C1.15332 62.9365 0 61.7832 0 60.3608V30.231C2.39648 45.248 12.7534 55.6865 25.7095 62.9365Z" fill="#2081F6"/>
<path d="M29.1616 39.5767C28.9321 39.5767 28.7017 39.4956 28.5176 39.3301C24.5801 35.8013 22.6494 31.6831 22.6152 26.7407C22.6147 26.7129 22.6157 26.6856 22.6182 26.6582C22.7402 25.104 23.3467 23.6587 24.3706 22.478C24.7202 22.0752 25.3301 22.0318 25.7329 22.3809C26.1357 22.731 26.1792 23.3408 25.8296 23.7437C25.0869 24.5996 24.644 25.6455 24.5469 26.7695C24.5879 31.1182 26.3091 34.7568 29.8066 37.8916C30.2036 38.2476 30.2373 38.8584 29.8814 39.2554C29.6904 39.4683 29.4263 39.5767 29.1616 39.5767Z" fill="#38AAFF"/>
<path d="M27.5361 22.3428C27.1528 22.3428 26.7901 22.1133 26.6392 21.7354C26.4414 21.2397 26.6826 20.6777 27.1777 20.48C28.0361 20.1372 28.9424 19.9629 29.8711 19.9629C30.4048 19.9629 30.8369 20.3955 30.8369 20.9287C30.8369 21.4624 30.4048 21.8945 29.8711 21.8945C29.189 21.8945 28.5239 22.022 27.8941 22.2739C27.7769 22.3208 27.6553 22.3428 27.5361 22.3428Z" fill="#60DAFF"/>
<path d="M48.251 19.834C47.8247 19.834 47.4346 19.5493 47.3189 19.1182C47.083 18.2373 46.7969 17.3613 46.4678 16.5137C46.2749 16.0161 46.5215 15.4566 47.0186 15.2637C47.5161 15.0708 48.0757 15.3174 48.2686 15.815C48.6226 16.7271 48.9307 17.6704 49.1846 18.6187C49.3228 19.1338 49.0166 19.6631 48.5015 19.8013C48.418 19.8238 48.334 19.834 48.251 19.834Z" fill="#A0ECFF"/>
<path d="M46.0019 14.1694C45.6587 14.1694 45.3257 13.9853 45.1513 13.6621C43.9746 11.4819 42.4775 9.47655 40.7016 7.70165C38.8315 5.83251 36.7094 4.27538 34.3945 3.07323C33.9209 2.82714 33.7368 2.24413 33.9824 1.77098C34.2285 1.29735 34.8115 1.11327 35.2846 1.35887C37.7754 2.65184 40.0571 4.32665 42.0674 6.33544C43.976 8.24315 45.5854 10.3994 46.851 12.7446C47.1045 13.2143 46.9292 13.8003 46.4599 14.0532C46.3139 14.1323 46.1567 14.1694 46.0019 14.1694Z" fill="#A0ECFF"/>
<path d="M21.0655 52.9268C20.8594 52.9268 20.6519 52.8613 20.4766 52.7261C19.75 52.1655 19.0425 51.5816 18.374 50.9893C17.9751 50.6358 17.938 50.0254 18.2915 49.626C18.645 49.2271 19.2559 49.19 19.6548 49.5435C20.2906 50.1069 20.9639 50.6626 21.6558 51.1963C22.0781 51.522 22.1568 52.1284 21.8306 52.5508C21.6406 52.7974 21.3545 52.9268 21.0655 52.9268Z" fill="#60DAFF"/>
<path d="M38.3682 61.5459C38.2715 61.5459 38.1738 61.5313 38.0767 61.501C32.7466 59.8174 28.0161 57.6924 24.0171 55.186C23.5649 54.9028 23.4282 54.3066 23.7114 53.855C23.9946 53.4028 24.5908 53.2661 25.043 53.5493C28.9028 55.9688 33.4839 58.0244 38.6587 59.6592C39.1675 59.8198 39.4492 60.3623 39.2886 60.8706C39.1587 61.2827 38.7778 61.5459 38.3682 61.5459Z" fill="#60DAFF"/>
<path d="M14.9692 39.9819C14.6201 39.9819 14.2832 39.7915 14.1113 39.4604C12.0635 35.5112 11.0249 31.187 11.0249 26.6069C11.0249 26.0732 11.4575 25.6411 11.9907 25.6411C12.5244 25.6411 12.9565 26.0737 12.9565 26.6069C12.9565 30.8745 13.9219 34.8999 15.8262 38.5708C16.0713 39.0444 15.8867 39.6274 15.4131 39.873C15.271 39.9468 15.1191 39.9819 14.9692 39.9819Z" fill="#2081F6"/>
<path d="M39.5317 57.8623C39.4351 57.8623 39.3374 57.8476 39.2407 57.8174C37.0088 57.1123 34.8711 56.3198 32.8862 55.4614C32.397 55.25 32.1714 54.6811 32.3833 54.1919C32.5952 53.7021 33.1636 53.4766 33.6528 53.6885C35.5776 54.521 37.6533 55.29 39.8223 55.9756C40.331 56.1362 40.6128 56.6787 40.4521 57.187C40.3223 57.5991 39.9414 57.8623 39.5317 57.8623Z" fill="#2081F6"/>
<path d="M50.1499 60.4619C50.0923 60.4619 50.0337 60.4565 49.9751 60.4458C48.3887 60.1557 46.8164 59.8286 45.3022 59.4736C44.7827 59.352 44.4605 58.8325 44.582 58.313C44.7041 57.7939 45.2246 57.4707 45.7427 57.5932C47.2266 57.9409 48.7671 58.2612 50.3227 58.5459C50.8472 58.6416 51.1948 59.145 51.0986 59.6694C51.0137 60.1357 50.6074 60.4619 50.1499 60.4619Z" fill="#2081F6"/>
<path d="M3.86328 26.9487C3.32959 26.9487 2.89746 26.5166 2.89746 25.9834C2.89746 25.0293 2.96484 24.0708 3.09814 23.1333C3.17334 22.605 3.66113 22.2373 4.19043 22.313C4.71826 22.3882 5.08545 22.8769 5.01074 23.4053C4.89014 24.2529 4.8291 25.1201 4.8291 25.9834C4.8291 26.5166 4.39648 26.9487 3.86328 26.9487Z" fill="#60DAFF"/>
<path d="M22.3418 7.0317C22.3418 6.47067 21.8667 6.02731 21.3071 6.06539C17.6758 6.31051 14.2154 7.55563 11.2276 9.70309C7.95461 12.0556 5.49367 15.3022 4.11037 19.0918C3.92775 19.5927 4.18557 20.1474 4.68654 20.33C4.79592 20.3701 4.90773 20.3891 5.0176 20.3891C5.41213 20.3891 5.78225 20.1455 5.92482 19.7539C8.36184 13.0776 14.5059 8.47457 21.4453 7.99557C21.9507 7.9609 22.3418 7.53854 22.3418 7.0317Z" fill="#60DAFF"/>
<path d="M4.59668 37.3428H4.5835C4.0498 37.3428 3.61768 36.9102 3.61768 36.377C3.61768 35.8438 4.05029 35.4111 4.5835 35.4111H4.59668C5.13037 35.4111 5.5625 35.8438 5.5625 36.377C5.5625 36.9102 5.13037 37.3428 4.59668 37.3428Z" fill="#2081F6"/>
<path d="M17.4619 43.4004H17.4487C16.915 43.4004 16.4829 42.9683 16.4829 42.4346C16.4829 41.9014 16.915 41.4688 17.4487 41.4688H17.4619C17.9956 41.4688 18.4277 41.9014 18.4277 42.4346C18.4277 42.9683 17.9956 43.4004 17.4619 43.4004Z" fill="#2081F6"/>
<path d="M16.3535 54.0361C16.125 54.0361 15.8955 53.9551 15.7114 53.791C13.1157 51.477 10.8823 48.9097 9.07421 46.1587C8.78124 45.7134 8.90478 45.1142 9.35058 44.8213C9.79638 44.5283 10.395 44.6518 10.688 45.0976C12.4038 47.7075 14.5264 50.1475 16.9966 52.3491C17.3945 52.7041 17.4297 53.3144 17.0747 53.7129C16.8843 53.9268 16.6196 54.0361 16.3535 54.0361Z" fill="#60DAFF"/>
<path d="M36.4077 31.8267C36.4043 31.8267 36.4014 31.8267 36.3985 31.8267H36.3848C35.8516 31.8218 35.4234 31.3853 35.4282 30.8521C35.4331 30.3218 35.8643 29.895 36.3936 29.895H36.4028H36.416C36.9497 29.9004 37.3779 30.3364 37.3731 30.8701C37.3682 31.4004 36.9365 31.8267 36.4077 31.8267Z" fill="#60DAFF"/>
<path d="M38.3745 33.542H38.3608C37.8276 33.542 37.395 33.1094 37.395 32.5762C37.395 32.043 37.8276 31.6104 38.3608 31.6104H38.3745C38.9077 31.6104 39.3403 32.043 39.3403 32.5762C39.3403 33.1094 38.9077 33.542 38.3745 33.542Z" fill="#60DAFF"/>
<path d="M35.6489 43.9297C35.6455 43.9297 35.6426 43.9297 35.6397 43.9297H35.626C35.0928 43.9248 34.6646 43.4883 34.6695 42.9546C34.6743 42.4243 35.106 41.998 35.6348 41.998H35.6441H35.6577C36.1909 42.0029 36.6192 42.4395 36.6143 42.9731C36.6094 43.5034 36.1778 43.9297 35.6489 43.9297Z" fill="#38AAFF"/>
<path d="M48.8355 25.5918C48.8321 25.5918 48.8291 25.5918 48.8262 25.5918H48.8125C48.2793 25.5869 47.8511 25.1504 47.856 24.6172C47.8609 24.0869 48.2925 23.6602 48.8213 23.6602H48.8306H48.8443C49.3775 23.6655 49.8057 24.1021 49.8008 24.6353C49.7959 25.1655 49.3643 25.5918 48.8355 25.5918Z" fill="#A0ECFF"/>
<path d="M21.0728 12.8853H21.0591C20.5259 12.8853 20.0933 12.4526 20.0933 11.9194C20.0933 11.3862 20.5259 10.9536 21.0591 10.9536H21.0728C21.606 10.9536 22.0386 11.3862 22.0386 11.9194C22.0386 12.4526 21.606 12.8853 21.0728 12.8853Z" fill="#60DAFF"/>
</g>
<defs>
<clipPath id="clip0_164_802">
<rect width="64" height="64" fill="white"/>
</clipPath>
</defs>
</svg>
