<svg width="64" height="64" viewBox="0 0 64 64" fill="none" xmlns="http://www.w3.org/2000/svg">
<g clip-path="url(#clip0_164_842)">
<path d="M55.4666 11.1716V29.1798H34.1333V11.1716L44.8 2.76855L55.4666 11.1716Z" fill="#F5E1C1"/>
<path d="M52.5048 8.83838V29.1799H55.4666V11.1716L52.5048 8.83838Z" fill="#F0CEA5"/>
<path d="M49.0666 29.1799H40.5332V18.0667C40.5332 17.5144 40.981 17.0667 41.5332 17.0667H48.0666C48.6189 17.0667 49.0666 17.5144 49.0666 18.0667V29.1799Z" fill="#5C545F"/>
<path d="M57.6253 14.1602L45.4199 5.4419C45.0491 5.17703 44.5508 5.17703 44.1799 5.4419L31.9746 14.16C31.4952 14.5024 30.8291 14.3914 30.4866 13.912L29.2466 12.1762C28.9042 11.6968 29.0152 11.0305 29.4946 10.6882L44.1799 0.198778C44.5508 -0.0660967 45.0491 -0.0660967 45.4199 0.198778L60.1053 10.6883C60.5847 11.0307 60.6957 11.6969 60.3533 12.1763L59.1133 13.9122C58.7709 14.3915 58.1047 14.5025 57.6253 14.1602Z" fill="#FF8086"/>
<path d="M60.1054 10.6883L45.42 0.198778C45.0491 -0.0660967 44.5509 -0.0660967 44.18 0.198778L43.3192 0.813653L57.1435 10.6883C57.6229 11.0307 57.7339 11.6969 57.3915 12.1763L56.5322 13.3793L57.6254 14.1602C58.1048 14.5025 58.7709 14.3915 59.1134 13.9122L60.3534 12.1763C60.6958 11.6968 60.5848 11.0307 60.1054 10.6883Z" fill="#E5646E"/>
<path d="M48.0365 17.0667H45.1081C45.6771 17.0667 46.1384 17.5279 46.1384 18.0968V29.1798H49.0667V18.0968C49.0666 17.5279 48.6055 17.0667 48.0365 17.0667Z" fill="#4B3F4E"/>
<path d="M6.39994 22.0201H10.6666V29.1799H6.39994V22.0201Z" fill="#F7E3C1"/>
<path d="M7.70484 22.0201H10.6666V29.1799H7.70484V22.0201Z" fill="#F1D0A4"/>
<path d="M12.3593 16.3855L9.07795 9.82259C8.85358 9.37384 8.21308 9.37384 7.9887 9.82259L4.7072 16.3855C4.50483 16.7903 4.7992 17.2667 5.25183 17.2667C5.65733 17.2667 5.94945 17.6556 5.8367 18.045L4.49195 22.6885C4.3792 23.078 4.67133 23.4667 5.07683 23.4667H11.9897C12.3952 23.4667 12.6873 23.0778 12.5746 22.6885L11.2298 18.045C11.1171 17.6555 11.4092 17.2667 11.8147 17.2667C12.2673 17.2666 12.5618 16.7903 12.3593 16.3855Z" fill="#B3E59F"/>
<path d="M12.3593 16.3855L9.07795 9.82259C8.85358 9.37384 8.21308 9.37384 7.9887 9.82259L4.7072 16.3855C4.50483 16.7903 4.7992 17.2667 5.25183 17.2667C5.65733 17.2667 5.94945 17.6556 5.8367 18.045L4.49195 22.6885C4.3792 23.078 4.67133 23.4667 5.07683 23.4667H11.9897C12.3952 23.4667 12.6873 23.0778 12.5746 22.6885L11.2298 18.045C11.1171 17.6555 11.4092 17.2667 11.8147 17.2667C12.2673 17.2666 12.5618 16.7903 12.3593 16.3855Z" fill="#B3E59F"/>
<path d="M12.5746 22.6883L11.2298 18.045C11.1171 17.6555 11.4092 17.2667 11.8147 17.2667C12.2673 17.2667 12.5617 16.7903 12.3593 16.3855L9.07796 9.82259C8.85358 9.37384 8.21308 9.37384 7.98871 9.82259L7.05246 11.6951L9.39771 16.3855C9.60008 16.7903 9.30571 17.2667 8.85308 17.2667C8.44758 17.2667 8.15546 17.6556 8.26821 18.045L9.61296 22.6885C9.72571 23.078 9.43358 23.4667 9.02808 23.4667H11.9898C12.3952 23.4666 12.6873 23.0778 12.5746 22.6883Z" fill="#95D6A4"/>
<path d="M25.3569 28.4628L23.6751 33.508C23.5474 33.8913 23.6471 34.3139 23.9328 34.5996L26.979 37.6459C27.3955 38.0624 27.3955 38.7378 26.979 39.1544L18.1283 48.0051C17.3324 48.801 16.0061 47.9814 16.3621 46.9135L18.8919 39.3243C19.0664 38.8009 18.8129 38.2309 18.3075 38.0098L14.5985 36.3871C14.1646 36.1974 13.9079 35.7443 13.968 35.2745C13.968 35.2745 14.507 31.0636 14.7794 28.9351C14.861 28.2975 14.3641 27.7336 13.7212 27.7336H1.06662C0.4775 27.7336 0 28.2111 0 28.8003V61.8669C0 63.0449 0.955125 64 2.13337 64H50.1334L64 51.2004V28.8C64 28.2109 63.5225 27.7334 62.9334 27.7334H26.3689C25.9097 27.7334 25.5021 28.0271 25.3569 28.4628Z" fill="#D19A6E"/>
<path d="M62.9334 27.7334H59.9716C60.5608 27.7334 61.0382 28.2109 61.0382 28.8V61.8668C61.0382 63.045 60.0831 64.0001 58.9049 64.0001H61.8666C63.0449 64.0001 64 63.045 64 61.8668V28.8C64 28.2109 63.5225 27.7334 62.9334 27.7334Z" fill="#C38C66"/>
<path d="M47.5129 39.1726L43.977 41.8244L45.6036 44.2642C45.8995 44.708 45.7796 45.3076 45.3357 45.6035C45.1711 45.7132 44.985 45.7659 44.8009 45.7659C44.4887 45.7659 44.1825 45.6149 43.9964 45.3356L41.863 42.1355C41.5786 41.7091 41.677 41.1347 42.0871 40.8271L45.709 38.1107L43.9361 34.565C43.6976 34.0878 43.891 33.5077 44.368 33.2692L48.1054 31.4005L48.134 27.733H50.0654C50.0654 27.7355 50.0657 27.738 50.0657 27.7405L50.035 31.6811L52.4912 34.956L54.931 33.3294C55.3747 33.0335 55.9744 33.1534 56.2702 33.5972C56.5661 34.041 56.4462 34.6406 56.0024 34.9365L52.8025 37.0699C52.6382 37.1794 52.4519 37.2322 52.2675 37.2322C51.973 37.2322 51.6832 37.0979 51.4941 36.8457L48.7776 33.2238L46.0959 34.5649L47.7972 37.9676C47.8331 38.0436 47.9382 38.2915 47.8695 38.6045C47.7966 38.9369 47.5765 39.1225 47.5129 39.1726Z" fill="#C38C66"/>
<path d="M29.8667 51.1999C28.6884 51.1999 27.7333 52.155 27.7333 53.3333C27.7333 54.5115 28.6884 55.4666 29.8667 55.4666H36.2667C37.4449 55.4666 38.4 54.5115 38.4 53.3333C38.4 52.155 37.4449 51.1999 36.2667 51.1999H29.8667Z" fill="#966A5B"/>
<path d="M32 61.8666C32 60.6884 31.0449 59.7332 29.8666 59.7332H17.9083C16.73 59.7332 15.7749 58.7781 15.7749 57.5998C15.7749 56.4216 16.73 55.4665 17.9083 55.4665H21.3334C22.5116 55.4665 23.4667 54.5113 23.4667 53.3331C23.4667 52.1548 22.5116 51.1997 21.3334 51.1997H0V61.8664C0 63.0449 0.955125 64 2.13337 64H29.8668C31.0449 64 32 63.0449 32 61.8666Z" fill="#966A5B"/>
<path d="M63.9999 61.8665V51.1999H44.7999C43.6217 51.1999 42.6666 52.155 42.6666 53.3333C42.6666 54.5115 43.6217 55.4666 44.7999 55.4666H46.9333C48.1116 55.4666 49.0667 56.4218 49.0667 57.6C49.0667 58.7783 48.1116 59.7334 46.9333 59.7334H38.3999C37.2217 59.7334 36.2666 60.6885 36.2666 61.8668C36.2666 63.045 37.2217 64.0002 38.3999 64.0002H61.8666C63.0448 63.9999 63.9999 63.0448 63.9999 61.8665Z" fill="#966A5B"/>
<path d="M61.0362 51.2V61.8666C61.0362 63.0449 60.0811 64 58.9028 64H61.8666C63.0449 64 64 63.0449 64 61.8666V51.2H61.0362Z" fill="#785353"/>
<path d="M23.4067 4.26662H22.2923C21.7857 4.26662 21.349 3.91 21.2483 3.41337C20.8529 1.46587 19.131 0 17.0669 0C14.9568 0 13.2045 1.53175 12.8612 3.544C12.7942 3.93687 12.5124 4.2485 12.1338 4.37288C11.2512 4.66288 10.6228 5.51325 10.6693 6.50313C10.7233 7.6505 11.7118 8.53337 12.8604 8.53337H23.4668C24.6792 8.53337 25.6554 7.522 25.5977 6.29688C25.5438 5.1495 24.5553 4.26662 23.4067 4.26662Z" fill="#ECF4FF"/>
<path d="M23.4067 4.26662H22.2923C21.7857 4.26662 21.349 3.91 21.2483 3.41337C20.8529 1.46587 19.131 0 17.0669 0C16.5463 0 16.0475 0.093625 15.5862 0.264375C16.9535 0.770625 17.9909 1.95725 18.2864 3.4135C18.3872 3.91 18.8238 4.26675 19.3304 4.26675H20.4448C21.5935 4.26675 22.5819 5.1495 22.6359 6.297C22.6937 7.52212 21.7174 8.5335 20.505 8.5335H23.4668C24.6792 8.5335 25.6554 7.52212 25.5977 6.297C25.5438 5.1495 24.5553 4.26662 23.4067 4.26662Z" fill="#DDEAFB"/>
</g>
<defs>
<clipPath id="clip0_164_842">
<rect width="64" height="64" fill="white"/>
</clipPath>
</defs>
</svg>
